<svg width="24" height="24" viewBox="0 0 24 24" fill="none" xmlns="http://www.w3.org/2000/svg">
<g clip-path="url(#clip0_438_405)">
<path d="M23.2501 11.2501H13.75C13.336 11.2501 13 10.9141 13 10.5001C13 10.0861 13.336 9.75014 13.75 9.75014H23.2501C23.6641 9.75014 24.0001 10.0861 24.0001 10.5001C24.0001 10.9141 23.6641 11.2501 23.2501 11.2501Z" fill="#494A4A"/>
<path d="M19.4998 15.0002C19.3077 15.0002 19.1158 14.9271 18.9697 14.7803C18.6768 14.4871 18.6768 14.0121 18.9697 13.7192L22.1898 10.4993L18.9697 7.27917C18.6768 6.9862 18.6768 6.51123 18.9697 6.21826C19.2629 5.92511 19.7379 5.92511 20.0308 6.21826L23.7808 9.96826C24.0738 10.2612 24.0738 10.7362 23.7808 11.0292L20.0308 14.7792C19.8838 14.9271 19.6919 15.0002 19.4998 15.0002Z" fill="#494A4A"/>
<path d="M8.00006 24C7.78601 24 7.58295 23.97 7.38006 23.907L1.36194 21.902C0.543091 21.616 0 20.853 0 20.0001V2.00006C0 0.897034 0.897034 0 2.00006 0C2.21393 0 2.41699 0.0300293 2.62006 0.0930176L8.638 2.09802C9.45703 2.38403 9.99994 3.14703 9.99994 3.99994V21.9999C9.99994 23.103 9.10309 24 8.00006 24ZM2.00006 1.5C1.72504 1.5 1.5 1.72504 1.5 2.00006V20.0001C1.5 20.213 1.64301 20.4109 1.84698 20.482L7.83691 22.478C7.87994 22.4919 7.93597 22.5 8.00006 22.5C8.27508 22.5 8.49994 22.275 8.49994 21.9999V3.99994C8.49994 3.78699 8.35693 3.58905 8.15295 3.51801L2.16302 1.52197C2.11999 1.50806 2.06396 1.5 2.00006 1.5Z" fill="#494A4A"/>
<path d="M15.2499 8.00006C14.8359 8.00006 14.4999 7.66406 14.4999 7.25006V2.75006C14.4999 2.06103 13.939 1.5 13.25 1.5H2C1.586 1.5 1.25 1.164 1.25 0.75C1.25 0.335999 1.586 0 2 0H13.25C14.767 0 15.9999 1.23303 15.9999 2.75006V7.25006C15.9999 7.66406 15.6639 8.00006 15.2499 8.00006Z" fill="#494A4A"/>
<path d="M13.2501 21.0001H9.25C8.836 21.0001 8.5 20.6641 8.5 20.2501C8.5 19.8361 8.836 19.5001 9.25 19.5001H13.2501C13.9391 19.5001 14.5 18.9391 14.5 18.2501V13.7501C14.5 13.3361 14.836 13.0001 15.25 13.0001C15.664 13.0001 16 13.3361 16 13.7501V18.2501C16 19.7671 14.7671 21.0001 13.2501 21.0001Z" fill="#494A4A"/>
</g>
<defs>
<clipPath id="clip0_438_405">
<rect width="24.0007" height="24" fill="white"/>
</clipPath>
</defs>
</svg>
