<svg width="24" height="24" viewBox="0 0 24 24" fill="none" xmlns="http://www.w3.org/2000/svg">
<g clip-path="url(#clip0_404_106)">
<path d="M23.7728 22.6948L17.5762 16.5972C19.1989 14.8343 20.1959 12.5027 20.1959 9.93702C20.1951 4.44861 15.6745 0 10.0976 0C4.52065 0 0 4.44861 0 9.93702C0 15.4254 4.52065 19.874 10.0976 19.874C12.5072 19.874 14.7172 19.0406 16.4532 17.655L22.6738 23.7765C22.9769 24.0751 23.469 24.0751 23.7721 23.7765C24.0759 23.478 24.0759 22.9933 23.7728 22.6948ZM10.0976 18.3452C5.37889 18.3452 1.55365 14.5807 1.55365 9.93702C1.55365 5.29332 5.37889 1.52887 10.0976 1.52887C14.8163 1.52887 18.6415 5.29332 18.6415 9.93702C18.6415 14.5807 14.8163 18.3452 10.0976 18.3452Z" fill="white"/>
</g>
<defs>
<clipPath id="clip0_404_106">
<rect width="24" height="24.0005" fill="white"/>
</clipPath>
</defs>
</svg>
