<svg width="24" height="24" viewBox="0 0 24 24" fill="none" xmlns="http://www.w3.org/2000/svg">
<path d="M7.65595 18.851C6.27214 18.851 5.15039 20.0037 5.15039 21.4255C5.15039 22.8474 6.27219 24 7.65595 24C9.03976 24 10.1615 22.8473 10.1615 21.4255C10.1616 20.0037 9.03976 18.851 7.65595 18.851ZM7.65595 22.8558C6.88718 22.8558 6.26398 22.2155 6.26398 21.4256C6.26398 20.6356 6.88718 19.9953 7.65595 19.9953C8.42472 19.9953 9.04791 20.6356 9.04791 21.4256C9.04796 22.2155 8.42472 22.8558 7.65595 22.8558Z" fill="white"/>
<path d="M18.235 18.851C16.8512 18.851 15.7295 20.0037 15.7295 21.4255C15.7295 22.8474 16.8513 24 18.235 24C19.6188 24 20.7406 22.8473 20.7406 21.4255C20.7406 20.0037 19.6189 18.851 18.235 18.851ZM18.235 22.8558C17.4663 22.8558 16.8431 22.2155 16.8431 21.4256C16.8431 20.6356 17.4663 19.9953 18.235 19.9953C19.0038 19.9953 19.627 20.6356 19.627 21.4256C19.6271 22.2155 19.0038 22.8558 18.235 22.8558Z" fill="white"/>
<path d="M23.8865 3.83318C23.7706 3.70303 23.6119 3.62156 23.4411 3.60431L5.31741 3.34687L4.8163 1.77355C4.46327 0.721805 3.50475 0.0117718 2.42206 0H0.556797C0.249277 0 0 0.256133 0 0.572111C0 0.888089 0.249277 1.14422 0.556797 1.14422H2.42206C3.02745 1.15796 3.56054 1.55739 3.75839 2.14543L7.29404 13.1013L7.01567 13.7592C6.70517 14.582 6.79842 15.5079 7.26623 16.2479C7.72956 16.9747 8.50904 17.4232 9.35423 17.4494H20.1839C20.4914 17.4494 20.7407 17.1932 20.7407 16.8772C20.7407 16.5613 20.4914 16.3051 20.1839 16.3051H9.35418C8.87688 16.2929 8.43753 16.0349 8.1849 15.6186C7.93509 15.2074 7.88377 14.7008 8.04571 14.2455L8.26845 13.7306L19.989 12.4719C21.2764 12.3263 22.3354 11.3641 22.6338 10.0691L23.9701 4.31938C24.0303 4.15381 23.9984 3.9676 23.8865 3.83318ZM21.548 9.81168C21.3673 10.6453 20.6784 11.2603 19.8498 11.3278L8.26845 12.5578L5.67934 4.49109L22.7451 4.74854L21.548 9.81168Z" fill="white"/>
</svg>
