<svg width="20" height="19" viewBox="0 0 20 19" fill="none" xmlns="http://www.w3.org/2000/svg">
<path d="M9.99951 18.6269C9.71478 18.6269 9.44028 18.5238 9.22635 18.3364C8.4184 17.6299 7.63943 16.966 6.95218 16.3804L6.94867 16.3773C4.93375 14.6603 3.19379 13.1774 1.98315 11.7167C0.629852 10.0837 -0.000488281 8.53537 -0.000488281 6.84393C-0.000488281 5.20055 0.563019 3.68444 1.58612 2.57466C2.62143 1.45177 4.04202 0.833328 5.58667 0.833328C6.74115 0.833328 7.79843 1.19832 8.72906 1.91808C9.19873 2.28139 9.62445 2.72603 9.99951 3.24468C10.3747 2.72603 10.8003 2.28139 11.2701 1.91808C12.2007 1.19832 13.258 0.833328 14.4125 0.833328C15.957 0.833328 17.3777 1.45177 18.4131 2.57466C19.4362 3.68444 19.9995 5.20055 19.9995 6.84393C19.9995 8.53537 19.3693 10.0837 18.016 11.7165C16.8054 13.1774 15.0656 14.6601 13.051 16.377C12.3625 16.9636 11.5823 17.6286 10.7725 18.3367C10.5587 18.5238 10.2841 18.6269 9.99951 18.6269ZM5.58667 2.0049C4.37314 2.0049 3.25833 2.48922 2.44733 3.36873C1.62427 4.26153 1.17093 5.49566 1.17093 6.84393C1.17093 8.26651 1.69965 9.53879 2.8851 10.9691C4.03088 12.3518 5.73514 13.8041 7.7084 15.4858L7.71207 15.4888C8.40192 16.0767 9.18393 16.7432 9.99783 17.4549C10.8166 16.7419 11.5999 16.0743 12.2911 15.4855C14.2642 13.8038 15.9683 12.3518 17.1141 10.9691C18.2994 9.53879 18.8281 8.26651 18.8281 6.84393C18.8281 5.49566 18.3748 4.26153 17.5517 3.36873C16.7408 2.48922 15.6259 2.0049 14.4125 2.0049C13.5235 2.0049 12.7073 2.28749 11.9867 2.84475C11.3444 3.34157 10.897 3.96963 10.6347 4.40908C10.4998 4.63506 10.2624 4.76995 9.99951 4.76995C9.7366 4.76995 9.49918 4.63506 9.36429 4.40908C9.10214 3.96963 8.65475 3.34157 8.01236 2.84475C7.29169 2.28749 6.47549 2.0049 5.58667 2.0049Z" fill="rgb(213, 184, 180)"/>
</svg>