<svg width="17" height="20" viewBox="0 0 17 20" fill="none" xmlns="http://www.w3.org/2000/svg">
<path d="M1.9963 5.95419V17.4942C1.9963 18.1762 2.24641 18.8168 2.68332 19.2764C3.11822 19.7373 3.72346 19.9989 4.35687 20H13.2188C13.8524 19.9989 14.4577 19.7373 14.8924 19.2764C15.3293 18.8168 15.5794 18.1762 15.5794 17.4942V5.95419C16.4479 5.72366 17.0107 4.8846 16.8945 3.99339C16.7782 3.10236 16.0191 2.43583 15.1203 2.43565H12.7223V1.85017C12.725 1.35782 12.5303 0.885049 12.1818 0.537238C11.8333 0.18961 11.3597 -0.00396362 10.8674 6.15416e-05H6.7083C6.21595 -0.00396362 5.74245 0.18961 5.3939 0.537238C5.04536 0.885049 4.85069 1.35782 4.85343 1.85017V2.43565H2.45535C1.55664 2.43583 0.797532 3.10236 0.681168 3.99339C0.564987 4.8846 1.12778 5.72366 1.9963 5.95419ZM13.2188 19.0632H4.35687C3.55605 19.0632 2.93306 18.3753 2.93306 17.4942V5.99536H14.6426V17.4942C14.6426 18.3753 14.0196 19.0632 13.2188 19.0632ZM5.7902 1.85017C5.78709 1.60628 5.88296 1.37154 6.05604 1.19938C6.22894 1.02721 6.46423 0.932619 6.7083 0.936827H10.8674C11.1115 0.932619 11.3468 1.02721 11.5197 1.19938C11.6927 1.37136 11.7886 1.60628 11.7855 1.85017V2.43565H5.7902V1.85017ZM2.45535 3.37242H15.1203C15.586 3.37242 15.9634 3.74987 15.9634 4.21551C15.9634 4.68114 15.586 5.05859 15.1203 5.05859H2.45535C1.98971 5.05859 1.61226 4.68114 1.61226 4.21551C1.61226 3.74987 1.98971 3.37242 2.45535 3.37242Z" fill="white"/>
</svg>
